# xmcd CD database file
#
# Track frame offsets:
#	150
#	23022
#	43473
#	63196
#	95413
#	114623
#	137133
#	155244
#	177960
#	196935
#	226464
#
# Disc length: 3278 seconds
#
# Revision: 0
# Processed by: cddbd v1.5.1PL0 Copyright (c) Steve Scherf et al.
# Submitted via: CDex 1.51
#
DISCID=980ccc0b
DTITLE=Dana Legg Stage Band - Boneheads
DYEAR=1996
DGENRE=Jazz
TTITLE0=Boneheads
TTITLE1=Chiaki's Fantasy
TTITLE2=Dawn's Awakening
TTITLE3=Hughes Street Dudes
TTITLE4=Save the Best for Last
TTITLE5=Big Blueser
TTITLE6=Give It Up!
TTITLE7=Dawn
TTITLE8=Lassus Trombone
TTITLE9=Parasite
TTITLE10=For the Last Time
EXTD=YEAR: 1996
EXTT0=
EXTT1=
EXTT2=
EXTT3=
EXTT4=
EXTT5=
EXTT6=
EXTT7=
EXTT8=
EXTT9=
EXTT10=
PLAYORDER=
